<mxfile host="app.diagrams.net" agent="Mozilla/5.0 (Windows NT 10.0; Win64; x64; rv:135.0) Gecko/20100101 Firefox/135.0" version="26.0.16">
  <diagram name="Page-1" id="03018318-947c-dd8e-b7a3-06fadd420f32">
    <mxGraphModel dx="1909" dy="976" grid="1" gridSize="10" guides="1" tooltips="1" connect="1" arrows="1" fold="1" page="1" pageScale="1" pageWidth="1100" pageHeight="850" background="none" math="0" shadow="0">
      <root>
        <mxCell id="0" />
        <mxCell id="1" parent="0" />
        <mxCell id="677b7b8949515195-1" value="" style="whiteSpace=wrap;html=1;rounded=0;shadow=0;labelBackgroundColor=none;strokeWidth=1;fontFamily=Verdana;fontSize=12;align=center;comic=1;fillColor=#f5f5f5;fontColor=#333333;strokeColor=#666666;" parent="1" vertex="1">
          <mxGeometry x="20" y="20" width="1060" height="810" as="geometry" />
        </mxCell>
        <mxCell id="677b7b8949515195-2" value="LOGO" style="whiteSpace=wrap;html=1;rounded=1;shadow=0;labelBackgroundColor=none;strokeWidth=1;fontFamily=Verdana;fontSize=28;align=center;comic=1;" parent="1" vertex="1">
          <mxGeometry x="40" y="45" width="190" height="50" as="geometry" />
        </mxCell>
        <mxCell id="677b7b8949515195-9" value="" style="line;strokeWidth=1;html=1;rounded=0;shadow=0;labelBackgroundColor=none;fillColor=none;fontFamily=Verdana;fontSize=14;fontColor=#000000;align=center;comic=1;" parent="1" vertex="1">
          <mxGeometry x="20" y="110" width="1060" height="10" as="geometry" />
        </mxCell>
        <mxCell id="sEXewFePVJEHohG28YoD-1" value="" style="whiteSpace=wrap;html=1;rounded=0;shadow=0;labelBackgroundColor=none;strokeWidth=1;fontFamily=Verdana;fontSize=12;align=center;comic=1;fillColor=none;strokeColor=#9673a6;gradientColor=none;" parent="1" vertex="1">
          <mxGeometry x="100.5" y="170" width="900" height="600" as="geometry" />
        </mxCell>
        <mxCell id="sEXewFePVJEHohG28YoD-3" value="&lt;font style=&quot;font-size: 24px;&quot;&gt;REGISTER ACCOUNT&lt;/font&gt;" style="text;html=1;align=center;verticalAlign=middle;whiteSpace=wrap;rounded=0;" parent="1" vertex="1">
          <mxGeometry x="365" y="190" width="370" height="40" as="geometry" />
        </mxCell>
        <mxCell id="sEXewFePVJEHohG28YoD-6" value="" style="rounded=1;whiteSpace=wrap;html=1;" parent="1" vertex="1">
          <mxGeometry x="390" y="260" width="420" height="40" as="geometry" />
        </mxCell>
        <mxCell id="h-9dSafM59v7MFnSCY6v-1" value="&lt;font style=&quot;font-size: 24px;&quot;&gt;NEXT&lt;/font&gt;" style="rounded=1;whiteSpace=wrap;html=1;fillColor=#dae8fc;strokeColor=#6c8ebf;glass=1;shadow=0;" vertex="1" parent="1">
          <mxGeometry x="870" y="700" width="90" height="40" as="geometry" />
        </mxCell>
        <mxCell id="h-9dSafM59v7MFnSCY6v-2" value="&lt;font style=&quot;font-size: 18px;&quot;&gt;Choose a username&lt;/font&gt;" style="text;html=1;align=center;verticalAlign=middle;whiteSpace=wrap;rounded=0;" vertex="1" parent="1">
          <mxGeometry x="140" y="260" width="190" height="40" as="geometry" />
        </mxCell>
        <mxCell id="h-9dSafM59v7MFnSCY6v-10" value="" style="rounded=1;whiteSpace=wrap;html=1;" vertex="1" parent="1">
          <mxGeometry x="390" y="330" width="420" height="40" as="geometry" />
        </mxCell>
        <mxCell id="h-9dSafM59v7MFnSCY6v-11" value="&lt;font style=&quot;font-size: 18px;&quot;&gt;Choose a valid password&lt;/font&gt;" style="text;html=1;align=center;verticalAlign=middle;whiteSpace=wrap;rounded=0;" vertex="1" parent="1">
          <mxGeometry x="140" y="330" width="230" height="40" as="geometry" />
        </mxCell>
        <mxCell id="h-9dSafM59v7MFnSCY6v-13" value="&lt;font style=&quot;font-size: 14px;&quot;&gt;BYTES&lt;/font&gt;" style="rounded=1;whiteSpace=wrap;html=1;fillColor=#f8cecc;strokeColor=#b85450;" vertex="1" parent="1">
          <mxGeometry x="390" y="480" width="420" height="30" as="geometry" />
        </mxCell>
        <mxCell id="h-9dSafM59v7MFnSCY6v-14" value="&lt;font style=&quot;font-size: 18px;&quot;&gt;Confirm your password&lt;/font&gt;" style="text;html=1;align=center;verticalAlign=middle;whiteSpace=wrap;rounded=0;" vertex="1" parent="1">
          <mxGeometry x="155" y="400" width="190" height="40" as="geometry" />
        </mxCell>
        <mxCell id="h-9dSafM59v7MFnSCY6v-15" value="" style="rounded=1;whiteSpace=wrap;html=1;" vertex="1" parent="1">
          <mxGeometry x="390" y="405" width="420" height="40" as="geometry" />
        </mxCell>
        <mxCell id="h-9dSafM59v7MFnSCY6v-16" value="&lt;font style=&quot;font-size: 24px;&quot;&gt;Password strength&lt;/font&gt;" style="text;html=1;align=center;verticalAlign=middle;whiteSpace=wrap;rounded=0;" vertex="1" parent="1">
          <mxGeometry x="435" y="530" width="330" height="40" as="geometry" />
        </mxCell>
        <mxCell id="h-9dSafM59v7MFnSCY6v-17" value="&lt;font style=&quot;font-size: 24px;&quot;&gt;Your passowrd must contain at least 8 different characters with a combination of uppercase letters, lowercase letters, digits and symbols for best security&lt;/font&gt;" style="text;html=1;align=left;verticalAlign=middle;whiteSpace=wrap;rounded=0;" vertex="1" parent="1">
          <mxGeometry x="345" y="570" width="590" height="100" as="geometry" />
        </mxCell>
      </root>
    </mxGraphModel>
  </diagram>
</mxfile>
